<svg xmlns="http://www.w3.org/2000/svg" xmlns:xlink="http://www.w3.org/1999/xlink" width="256" height="256" viewBox="0 0 256 256">
  <style>
    path { fill: #262525; }
    @media (prefers-color-scheme: dark) {
      path { fill: #ffffff; }
    }
  </style>

  <defs>
    <clipPath id="clip-sam-fav">
      <rect width="256" height="256"/>
    </clipPath>
  </defs>
  <g id="sam-fav" clip-path="url(#clip-sam-fav)">
    <path id="Path_306" data-name="Path 306" d="M55.695-89.77c-19.27-9.165-38.305-18.565-38.305-37.6,0-15.98,12.925-23.97,29.845-23.97,28.435,0,45.355,19.035,53.345,50.29h1.41V-159.8h-1.645L94-145.7c-8.46-8.225-22.56-14.335-38.305-14.335-23.5,0-44.885,14.335-44.885,40.655,0,26.085,21.15,34.78,39.95,43.475l7.05,3.29c20.915,9.635,43.71,18.565,43.71,40.89,0,13.865-8.46,26.32-34.545,26.32-19.27,0-52.64-7.05-60.63-61.1l-1.88.235,6.58,58.985C27.025-4.7,37.6,2.82,58.28,2.82c33.605,0,51-20.915,51-43.945,0-27.025-24.675-34.78-47.705-45.825ZM161.68-76.14l53.815,6.58v54.52c-7.99,4.7-14.1,7.05-26.32,7.05-37.835,0-62.04-35.485-62.04-80.605,0-55.93,36.66-61.8,49.585-61.8,25.38,0,47.94,15.745,41.6,41.125h1.41l10.81-28.2c-5.4-11.985-23.03-23.5-49.585-23.5-8.93,0-66.035,18.565-66.035,83.425,0,45.355,28.435,79.9,65.565,79.9,6.815,0,30.08-10.105,40.42-17.39h.47l5.875,18.33h1.41l.94-79.665-1.41-1.41-66.5.235Z" transform="translate(7 204)"/>
  </g>
</svg>
